<svg version="1.2" xmlns="http://www.w3.org/2000/svg" viewBox="0 0 550 210" width="550" height="210">
	<title>logo 2023-ai</title>
	<style>
		.s0 { fill: #ea1e55 } 
	</style>
	<g id="Layer 1">
		<g id="&lt;Group&gt;">
			<path id="&lt;Path&gt;" class="s0" d="m144.6 55.9c0.3-0.2 2.2-1.6 4.6-1.3 1.8 0.3 3 1.4 3.4 1.8-2.6 16.2-11.5 58.1-45.3 95.8-38.9 43.4-85.7 53.2-100.3 55.6-0.5-0.2-1.2-0.7-1.7-1.6-0.9-1.6-0.5-3.9 0.9-5.8 19.8-5.1 35.2-12.7 45.7-18.8 5.4-3.2 32.3-19.2 57-51 13.1-16.9 20.1-31.1 21.7-34.2 7.6-15.7 11.7-29.9 14-40.5zm1.2 99.4c-0.4 0.2-2.2 1.6-4.7 1.3-1.8-0.3-2.9-1.4-3.3-1.8 2.6-16.2 11.4-58.1 45.2-95.8 39-43.5 85.8-53.2 100.3-55.6 0.5 0.2 1.3 0.7 1.8 1.6 0.9 1.6 0.5 3.9-1 5.7-19.7 5.2-35.1 12.8-45.6 18.9-5.5 3.2-32.3 19.2-57.1 51-13.1 16.9-20.1 31-21.6 34.2-7.6 15.7-11.7 29.9-14 40.5z"/>
			<g id="&lt;Group&gt;">
				<path id="&lt;Compound Path&gt;" class="s0" d="m263.5 126h-52v30h-18.5v-38.6q0-10.7 2.3-18.2 2.9-8.9 8.9-13.7 7-5.4 18.3-5.4h41v16h-41q-6.9 0-9.6 6.7-0.9 2.3-1.4 6.8h52v16z"/>
				<path id="&lt;Compound Path&gt;" class="s0" d="m341.6 156h-33.3q-15.9 0-25.1-7.3-7.3-5.6-10.3-15.3-2-6.4-2-14 0-1.7 0.1-2.4 0-0.7 0.1-1.3v-35.6h18.5v35.6q0 9.6 4.5 16.2 5.1 7.6 14.2 7.6h33.3z"/>
				<path id="&lt;Compound Path&gt;" class="s0" d="m367.8 156h-18.5v-75.9h18.5z"/>
				<path id="&lt;Compound Path&gt;" class="s0" d="m459.7 140.7q0 7.2-6.5 11.9-6.2 4.4-14.8 4.4-7.4 0-13.3-3.5-6.5-4-9.3-11.4-0.5-1.5-5-16.2-4-13.3-7-20.8-4.2-10.2-6.8-9.9-1.7 0.3-2.4 1.2-0.7 1-0.7 2.6v57h-18.5v-61q0-8.3 7-12.6 5.9-3.8 15.2-3.8 12.5 0 19.8 11.4 4.9 7.6 9.4 24.6 4.9 18.6 7.2 23.1 1.2 2.4 3.7 2.4 1.4 0 2.4-1 1-1 1-2.7v-56.9h18.6z"/>
				<path id="&lt;Compound Path&gt;" class="s0" d="m537.9 96.1h-37.8q-6.9 0-10.8 6.6-3.5 5.9-3.5 14.6 0 8.9 3.6 15.2 4 7 10.7 7l7.3 0.3h9.2q2.8 0 4.5-2.1 1.6-2.2 1.6-5 0-2.8-1.6-4.7-1.5-2-4.5-2h-9.2v-16.4h12.2q10.6 0 16.8 7.2 5.5 6.5 5.5 16 0 9.4-5.5 15.9-6.2 7.3-16.8 7.3h-12.2-10.4q-14.7 0-23.3-11.7-7.7-10.4-7.7-25.7 0-15.5 7.8-26.4 8.7-12.1 23.2-12.1h40.9z"/>
			</g>
		</g>
	</g>
</svg>